<svg width="20" height="20" viewBox="0 0 20 20" fill="none" xmlns="http://www.w3.org/2000/svg">
<path d="M13.9572 2.96699V1.66699C13.9572 1.32533 13.6739 1.04199 13.3322 1.04199C12.9906 1.04199 12.7072 1.32533 12.7072 1.66699V2.91699H7.29056V1.66699C7.29056 1.32533 7.00722 1.04199 6.66556 1.04199C6.32389 1.04199 6.04056 1.32533 6.04056 1.66699V2.96699C3.79056 3.17533 2.69889 4.51699 2.53222 6.50866C2.51556 6.75033 2.71556 6.95033 2.94889 6.95033H17.0489C17.2906 6.95033 17.4906 6.74199 17.4656 6.50866C17.2989 4.51699 16.2072 3.17533 13.9572 2.96699Z" fill="#AEB0CF"/>
<path d="M16.6667 8.2002H3.33333C2.875 8.2002 2.5 8.5752 2.5 9.03353V14.1669C2.5 16.6669 3.75 18.3335 6.66667 18.3335H13.3333C16.25 18.3335 17.5 16.6669 17.5 14.1669V9.03353C17.5 8.5752 17.125 8.2002 16.6667 8.2002ZM7.675 15.1752C7.59167 15.2502 7.5 15.3085 7.4 15.3502C7.3 15.3919 7.19167 15.4169 7.08333 15.4169C6.975 15.4169 6.86667 15.3919 6.76667 15.3502C6.66667 15.3085 6.575 15.2502 6.49167 15.1752C6.34167 15.0169 6.25 14.8002 6.25 14.5835C6.25 14.3669 6.34167 14.1502 6.49167 13.9919C6.575 13.9169 6.66667 13.8585 6.76667 13.8169C6.96667 13.7335 7.2 13.7335 7.4 13.8169C7.5 13.8585 7.59167 13.9169 7.675 13.9919C7.825 14.1502 7.91667 14.3669 7.91667 14.5835C7.91667 14.8002 7.825 15.0169 7.675 15.1752ZM7.85 11.9835C7.80833 12.0835 7.75 12.1752 7.675 12.2585C7.59167 12.3335 7.5 12.3919 7.4 12.4335C7.3 12.4752 7.19167 12.5002 7.08333 12.5002C6.975 12.5002 6.86667 12.4752 6.76667 12.4335C6.66667 12.3919 6.575 12.3335 6.49167 12.2585C6.41667 12.1752 6.35833 12.0835 6.31667 11.9835C6.275 11.8835 6.25 11.7752 6.25 11.6669C6.25 11.5585 6.275 11.4502 6.31667 11.3502C6.35833 11.2502 6.41667 11.1585 6.49167 11.0752C6.575 11.0002 6.66667 10.9419 6.76667 10.9002C6.96667 10.8169 7.2 10.8169 7.4 10.9002C7.5 10.9419 7.59167 11.0002 7.675 11.0752C7.75 11.1585 7.80833 11.2502 7.85 11.3502C7.89167 11.4502 7.91667 11.5585 7.91667 11.6669C7.91667 11.7752 7.89167 11.8835 7.85 11.9835ZM10.5917 12.2585C10.5083 12.3335 10.4167 12.3919 10.3167 12.4335C10.2167 12.4752 10.1083 12.5002 10 12.5002C9.89167 12.5002 9.78333 12.4752 9.68333 12.4335C9.58333 12.3919 9.49167 12.3335 9.40833 12.2585C9.25833 12.1002 9.16667 11.8835 9.16667 11.6669C9.16667 11.4502 9.25833 11.2335 9.40833 11.0752C9.49167 11.0002 9.58333 10.9419 9.68333 10.9002C9.88333 10.8085 10.1167 10.8085 10.3167 10.9002C10.4167 10.9419 10.5083 11.0002 10.5917 11.0752C10.7417 11.2335 10.8333 11.4502 10.8333 11.6669C10.8333 11.8835 10.7417 12.1002 10.5917 12.2585Z" fill="#AEB0CF"/>
</svg>
