<svg width="14" height="14" viewBox="0 0 14 14" fill="none" xmlns="http://www.w3.org/2000/svg">
<path d="M6.9987 0.333984C3.32536 0.333984 0.332031 3.32732 0.332031 7.00065C0.332031 10.674 3.32536 13.6673 6.9987 13.6673C10.672 13.6673 13.6654 10.674 13.6654 7.00065C13.6654 3.32732 10.672 0.333984 6.9987 0.333984ZM10.1854 5.46732L6.40536 9.24732C6.31203 9.34065 6.18536 9.39398 6.05203 9.39398C5.9187 9.39398 5.79203 9.34065 5.6987 9.24732L3.81203 7.36065C3.6187 7.16732 3.6187 6.84732 3.81203 6.65398C4.00536 6.46065 4.32536 6.46065 4.5187 6.65398L6.05203 8.18732L9.4787 4.76065C9.67203 4.56732 9.99203 4.56732 10.1854 4.76065C10.3787 4.95398 10.3787 5.26732 10.1854 5.46732Z" fill="#3AC430"/>
</svg>
