<svg width="14" height="14" viewBox="0 0 14 14" fill="none" xmlns="http://www.w3.org/2000/svg">
<path d="M12.0053 2.90065L8.04531 0.613984C7.39865 0.240651 6.59865 0.240651 5.94531 0.613984L1.99198 2.90065C1.34531 3.27398 0.945312 3.96732 0.945312 4.72065V9.28065C0.945312 10.0273 1.34531 10.7207 1.99198 11.1007L5.95198 13.3873C6.59865 13.7607 7.39865 13.7607 8.05198 13.3873L12.012 11.1007C12.6586 10.7273 13.0586 10.034 13.0586 9.28065V4.72065C13.052 3.96732 12.652 3.28065 12.0053 2.90065ZM6.49865 4.16732C6.49865 3.89398 6.72531 3.66732 6.99865 3.66732C7.27198 3.66732 7.49865 3.89398 7.49865 4.16732V7.66732C7.49865 7.94065 7.27198 8.16732 6.99865 8.16732C6.72531 8.16732 6.49865 7.94065 6.49865 7.66732V4.16732ZM7.61198 10.0873C7.57865 10.1673 7.53198 10.2407 7.47198 10.3073C7.34531 10.434 7.17865 10.5007 6.99865 10.5007C6.91198 10.5007 6.82531 10.4807 6.74531 10.4473C6.65865 10.414 6.59198 10.3673 6.52531 10.3073C6.46531 10.2407 6.41865 10.1673 6.37865 10.0873C6.34531 10.0073 6.33198 9.92065 6.33198 9.83398C6.33198 9.66065 6.39865 9.48732 6.52531 9.36065C6.59198 9.30065 6.65865 9.25398 6.74531 9.22065C6.99198 9.11398 7.28531 9.17398 7.47198 9.36065C7.53198 9.42732 7.57865 9.49398 7.61198 9.58065C7.64531 9.66065 7.66531 9.74732 7.66531 9.83398C7.66531 9.92065 7.64531 10.0073 7.61198 10.0873Z" fill="#EF4949"/>
</svg>
