<svg width="14" height="14" viewBox="0 0 14 14" fill="none" xmlns="http://www.w3.org/2000/svg">
<path d="M12.8853 4.33969L8.51867 0.846353C7.66534 0.166353 6.33201 0.159687 5.48534 0.839687L1.11867 4.33969C0.492007 4.83969 0.112007 5.83969 0.24534 6.62635L1.08534 11.653C1.27867 12.7797 2.32534 13.6664 3.46534 13.6664H10.532C11.6587 13.6664 12.7253 12.7597 12.9187 11.6464L13.7587 6.61969C13.8787 5.83969 13.4987 4.83969 12.8853 4.33969ZM7.49867 10.9997C7.49867 11.273 7.27201 11.4997 6.99867 11.4997C6.72534 11.4997 6.49867 11.273 6.49867 10.9997V8.99969C6.49867 8.72635 6.72534 8.49969 6.99867 8.49969C7.27201 8.49969 7.49867 8.72635 7.49867 8.99969V10.9997Z" fill="#AEB0CF"/>
</svg>
