<svg width="14" height="14" viewBox="0 0 14 14" fill="none" xmlns="http://www.w3.org/2000/svg">
<path d="M12.8853 4.34066L8.51867 0.84733C7.66534 0.16733 6.33201 0.160663 5.48534 0.840663L1.11867 4.34066C0.492007 4.84066 0.112007 5.84066 0.24534 6.62733L1.08534 11.654C1.27867 12.7807 2.32534 13.6673 3.46534 13.6673H10.532C11.6587 13.6673 12.7253 12.7607 12.9187 11.6473L13.7587 6.62066C13.8787 5.84066 13.4987 4.84066 12.8853 4.34066ZM7.49867 11.0007C7.49867 11.274 7.27201 11.5007 6.99867 11.5007C6.72534 11.5007 6.49867 11.274 6.49867 11.0007V9.00066C6.49867 8.72733 6.72534 8.50066 6.99867 8.50066C7.27201 8.50066 7.49867 8.72733 7.49867 9.00066V11.0007Z" fill="#3AC430"/>
</svg>
