<svg width="14" height="14" viewBox="0 0 14 14" fill="none" xmlns="http://www.w3.org/2000/svg">
<path d="M4.9987 7.66732H6.33203V9.00065C6.33203 9.17746 6.40227 9.34703 6.52729 9.47206C6.65232 9.59708 6.82189 9.66732 6.9987 9.66732C7.17551 9.66732 7.34508 9.59708 7.4701 9.47206C7.59513 9.34703 7.66536 9.17746 7.66536 9.00065V7.66732H8.9987C9.17551 7.66732 9.34508 7.59708 9.4701 7.47206C9.59513 7.34703 9.66537 7.17746 9.66537 7.00065C9.66537 6.82384 9.59513 6.65427 9.4701 6.52925C9.34508 6.40422 9.17551 6.33398 8.9987 6.33398H7.66536V5.00065C7.66536 4.82384 7.59513 4.65427 7.4701 4.52925C7.34508 4.40422 7.17551 4.33398 6.9987 4.33398C6.82189 4.33398 6.65232 4.40422 6.52729 4.52925C6.40227 4.65427 6.33203 4.82384 6.33203 5.00065V6.33398H4.9987C4.82189 6.33398 4.65232 6.40422 4.52729 6.52925C4.40227 6.65427 4.33203 6.82384 4.33203 7.00065C4.33203 7.17746 4.40227 7.34703 4.52729 7.47206C4.65232 7.59708 4.82189 7.66732 4.9987 7.66732ZM12.9987 0.333984H0.998698C0.821887 0.333984 0.652318 0.404222 0.527293 0.529246C0.402269 0.654271 0.332031 0.82384 0.332031 1.00065V13.0007C0.332031 13.1775 0.402269 13.347 0.527293 13.4721C0.652318 13.5971 0.821887 13.6673 0.998698 13.6673H12.9987C13.1755 13.6673 13.3451 13.5971 13.4701 13.4721C13.5951 13.347 13.6654 13.1775 13.6654 13.0007V1.00065C13.6654 0.82384 13.5951 0.654271 13.4701 0.529246C13.3451 0.404222 13.1755 0.333984 12.9987 0.333984ZM12.332 12.334H1.66536V1.66732H12.332V12.334Z" fill="#BCBCBC"/>
</svg>
